<?xml version="1.0" standalone="no"?>
<!DOCTYPE svg PUBLIC "-//W3C//DTD SVG 20010904//EN"
 "http://www.w3.org/TR/2001/REC-SVG-20010904/DTD/svg10.dtd">
<svg version="1.0" xmlns="http://www.w3.org/2000/svg"
 width="927.000000pt" height="1280.000000pt" viewBox="0 0 927.000000 1280.000000"
 preserveAspectRatio="xMidYMid meet">
<g transform="translate(0.000000,1280.000000) scale(0.100000,-0.100000)"
fill="#000000" stroke="none">
<path d="M4335 12790 c-38 -5 -137 -13 -220 -20 -338 -26 -692 -94 -1010 -193
-1035 -323 -1945 -1050 -2368 -1893 -226 -450 -338 -915 -354 -1464 -10 -359
35 -658 151 -995 186 -544 485 -1019 965 -1533 58 -62 107 -117 109 -122 2 -5
-41 -42 -95 -81 -294 -217 -643 -544 -827 -774 -353 -441 -552 -909 -635
-1490 -61 -425 -62 -706 -5 -1120 52 -383 153 -709 321 -1037 321 -628 860
-1132 1618 -1511 594 -297 1283 -475 2035 -527 85 -6 205 -15 266 -20 141 -13
397 -13 538 0 61 5 188 14 281 20 305 19 584 57 895 120 1442 293 2560 1094
2996 2147 151 364 216 655 260 1158 42 488 -54 1095 -248 1555 -217 517 -647
1034 -1208 1455 -58 43 -108 83 -112 89 -4 6 50 69 125 146 316 321 519 597
703 955 243 471 354 948 354 1521 0 868 -227 1574 -699 2174 -152 193 -450
470 -681 635 -186 132 -506 308 -740 408 -481 204 -1069 338 -1660 377 -91 6
-209 15 -263 20 -112 11 -389 11 -492 0z m490 -2755 c194 -34 376 -128 515
-265 130 -129 193 -268 208 -458 31 -387 -124 -699 -481 -968 -104 -78 -283
-188 -408 -250 l-76 -37 -99 52 c-527 281 -779 604 -801 1026 -13 243 67 442
251 627 150 152 349 253 551 281 74 10 260 6 340 -8z m-124 -4816 c159 -62
432 -200 549 -277 467 -306 690 -671 690 -1126 -1 -341 -138 -596 -428 -794
-160 -109 -327 -178 -549 -224 -95 -20 -138 -23 -348 -23 -198 0 -255 3 -325
19 -287 62 -517 183 -701 366 -182 180 -259 375 -259 650 0 444 241 827 720
1146 139 93 514 303 541 304 4 0 53 -18 110 -41z"/>
</g>
</svg>
